<?xml version="1.0" encoding="UTF-8" standalone="no"?>
<svg
   xmlns:ns6="http://www.iki.fi/pav/software/textext/"
   xmlns:dc="http://purl.org/dc/elements/1.1/"
   xmlns:cc="http://creativecommons.org/ns#"
   xmlns:rdf="http://www.w3.org/1999/02/22-rdf-syntax-ns#"
   xmlns:svg="http://www.w3.org/2000/svg"
   xmlns="http://www.w3.org/2000/svg"
   xmlns:xlink="http://www.w3.org/1999/xlink"
   xmlns:sodipodi="http://sodipodi.sourceforge.net/DTD/sodipodi-0.dtd"
   xmlns:inkscape="http://www.inkscape.org/namespaces/inkscape"
   height="817.61755"
   id="svg2"
   preserveAspectRatio="xMidYMid meet"
   version="1.1"
   viewBox="0 0 785.86096 817.61755"
   width="785.86096"
   sodipodi:docname="absorber_stepping_03.svg"
   inkscape:version="0.92.3 (2405546, 2018-03-11)">
  <sodipodi:namedview
     bordercolor="#666666"
     borderopacity="1"
     fit-margin-bottom="0"
     fit-margin-left="0"
     fit-margin-right="0"
     fit-margin-top="0"
     gridtolerance="10"
     guidetolerance="10"
     id="namedview4"
     objecttolerance="10"
     pagecolor="#ffffff"
     showgrid="false"
     inkscape:current-layer="svg2"
     inkscape:cx="27.43394"
     inkscape:cy="314.94303"
     inkscape:object-nodes="true"
     inkscape:object-paths="true"
     inkscape:pageopacity="0"
     inkscape:pageshadow="2"
     inkscape:window-height="1015"
     inkscape:window-maximized="1"
     inkscape:window-width="1920"
     inkscape:window-x="0"
     inkscape:window-y="0"
     inkscape:zoom="0.6783626">
    <inkscape:grid
       originy="69.930862"
       originx="118.74666"
       visible="true"
       type="xygrid"
       snapvisiblegridlinesonly="true"
       id="grid2987"
       enabled="true"
       empspacing="5" />
  </sodipodi:namedview>
  <metadata
     id="metadata8">
    <rdf:RDF>
      <cc:Work
         rdf:about="">
        <dc:format>image/svg+xml</dc:format>
        <dc:type
           rdf:resource="http://purl.org/dc/dcmitype/StillImage" />
        <dc:title />
      </cc:Work>
    </rdf:RDF>
  </metadata>
  <defs
     id="defs6">
    <g
       id="g4502">
      <symbol
         style="overflow:visible"
         overflow="visible"
         id="textext-79878c5c-0">
        <path
           inkscape:connector-curvature="0"
           style="stroke:none"
           id="path4505"
           d="m 4.84375,-3.796875 c 0.046875,-0.140625 0.046875,-0.15625 0.046875,-0.234375 0,-0.171875 -0.140625,-0.265625 -0.296875,-0.265625 -0.09375,0 -0.25,0.0625 -0.34375,0.203125 -0.015625,0.0625 -0.109375,0.359375 -0.140625,0.546875 -0.078125,0.25 -0.140625,0.53125 -0.203125,0.796875 l -0.453125,1.796875 c -0.03125,0.140625 -0.46875,0.84375 -1.125,0.84375 -0.5,0 -0.609375,-0.4375 -0.609375,-0.8125 C 1.71875,-1.375 1.890625,-2 2.21875,-2.875 2.375,-3.28125 2.421875,-3.390625 2.421875,-3.59375 c 0,-0.4375 -0.3125,-0.8125 -0.8125,-0.8125 -0.953125,0 -1.3125,1.453125 -1.3125,1.53125 0,0.109375 0.09375,0.109375 0.109375,0.109375 0.109375,0 0.109375,-0.03125 0.15625,-0.1875 0.28125,-0.9375 0.671875,-1.234375 1.015625,-1.234375 0.078125,0 0.25,0 0.25,0.3125 0,0.25 -0.109375,0.515625 -0.171875,0.703125 -0.40625,1.0625 -0.578125,1.625 -0.578125,2.09375 0,0.890625 0.625,1.1875 1.21875,1.1875 0.390625,0 0.71875,-0.171875 1,-0.453125 -0.125,0.515625 -0.25,1.015625 -0.640625,1.546875 -0.265625,0.328125 -0.640625,0.625 -1.09375,0.625 -0.140625,0 -0.59375,-0.03125 -0.765625,-0.421875 0.15625,0 0.296875,0 0.421875,-0.125 C 1.328125,1.203125 1.421875,1.0625 1.421875,0.875 1.421875,0.5625 1.15625,0.53125 1.0625,0.53125 0.828125,0.53125 0.5,0.6875 0.5,1.171875 c 0,0.5 0.4375,0.875 1.0625,0.875 1.015625,0 2.046875,-0.90625 2.328125,-2.03125 z m 0,0" />
      </symbol>
      <symbol
         style="overflow:visible"
         overflow="visible"
         id="textext-79878c5c-1">
        <path
           inkscape:connector-curvature="0"
           style="stroke:none"
           id="path4508"
           d="m 4.953125,-4.8125 c 0,-0.03125 -0.03125,-0.09375 -0.09375,-0.09375 -0.046875,0 -0.046875,0.015625 -0.140625,0.109375 L 4.375,-4.40625 c -0.265625,-0.375 -0.703125,-0.5 -1.125,-0.5 -0.984375,0 -1.859375,0.796875 -1.859375,1.609375 0,0.09375 0.03125,0.375 0.234375,0.640625 0.234375,0.265625 0.5,0.328125 0.96875,0.453125 0.140625,0.03125 0.484375,0.109375 0.59375,0.140625 0.21875,0.046875 0.640625,0.203125 0.640625,0.71875 0,0.5625 -0.59375,1.234375 -1.375,1.234375 -0.625,0 -1.359375,-0.21875 -1.359375,-0.984375 0,-0.078125 0.015625,-0.234375 0.046875,-0.359375 0,-0.03125 0,-0.03125 0,-0.03125 0,-0.09375 -0.078125,-0.09375 -0.109375,-0.09375 -0.09375,0 -0.109375,0.015625 -0.125,0.140625 l -0.359375,1.390625 c -0.015625,0.03125 -0.03125,0.0625 -0.03125,0.109375 0,0.03125 0.03125,0.078125 0.109375,0.078125 0.03125,0 0.046875,-0.015625 0.140625,-0.09375 0.078125,-0.09375 0.25,-0.3125 0.328125,-0.390625 C 1.46875,0.0625 2,0.140625 2.421875,0.140625 c 1.0625,0 1.90625,-0.90625 1.90625,-1.734375 0,-0.296875 -0.125,-0.578125 -0.28125,-0.734375 -0.234375,-0.25 -0.34375,-0.28125 -1.25,-0.5 C 2.65625,-2.859375 2.421875,-2.90625 2.359375,-2.9375 2.1875,-3 1.890625,-3.171875 1.890625,-3.5625 c 0,-0.5625 0.625,-1.109375 1.34375,-1.109375 0.765625,0 1.125,0.421875 1.125,1.078125 0,0.09375 -0.03125,0.25 -0.03125,0.3125 0,0.109375 0.078125,0.109375 0.125,0.109375 0.09375,0 0.109375,-0.046875 0.125,-0.15625 z m 0,0" />
      </symbol>
      <symbol
         style="overflow:visible"
         overflow="visible"
         id="textext-79878c5c-2">
        <path
           inkscape:connector-curvature="0"
           style="stroke:none"
           id="path4511"
           d="m 5.78125,-2.96875 c 0,-1.09375 -0.796875,-1.9375 -2.03125,-1.9375 -1.65625,0 -3.265625,1.5625 -3.265625,3.140625 0,1.125 0.828125,1.90625 2.03125,1.90625 1.65625,0 3.265625,-1.515625 3.265625,-3.109375 z m -3.21875,2.875 c -0.734375,0 -1.359375,-0.5 -1.359375,-1.53125 0,-0.359375 0.09375,-1.34375 0.734375,-2.140625 0.46875,-0.5625 1.140625,-0.90625 1.765625,-0.90625 0.71875,0 1.390625,0.453125 1.390625,1.46875 0,0.5 -0.21875,1.53125 -0.859375,2.265625 C 3.75,-0.375 3.109375,-0.09375 2.5625,-0.09375 Z m 0,0" />
      </symbol>
      <symbol
         style="overflow:visible"
         overflow="visible"
         id="textext-79878c5c-3">
        <path
           inkscape:connector-curvature="0"
           style="stroke:none"
           id="path4514"
           d="m 1.46875,-0.109375 c 0,0.375 -0.0625,0.828125 -0.546875,1.265625 C 0.90625,1.1875 0.875,1.21875 0.875,1.25 c 0,0.046875 0.0625,0.09375 0.09375,0.09375 0.109375,0 0.703125,-0.5625 0.703125,-1.390625 0,-0.421875 -0.171875,-0.75 -0.5,-0.75 -0.21875,0 -0.390625,0.171875 -0.390625,0.390625 C 0.78125,-0.1875 0.9375,0 1.1875,0 1.359375,0 1.46875,-0.109375 1.46875,-0.109375 Z m 0,0" />
      </symbol>
      <symbol
         style="overflow:visible"
         overflow="visible"
         id="textext-79878c5c-4">
        <path
           inkscape:connector-curvature="0"
           style="stroke:none"
           id="path4517"
           d="M 2.9375,-0.96875 H 2.71875 c 0,0.09375 -0.0625,0.40625 -0.140625,0.453125 -0.03125,0.03125 -0.453125,0.03125 -0.53125,0.03125 H 1.078125 C 1.40625,-0.71875 1.765625,-1 2.0625,-1.203125 c 0.453125,-0.3125 0.875,-0.59375 0.875,-1.125 0,-0.640625 -0.609375,-0.984375 -1.3125,-0.984375 -0.671875,0 -1.171875,0.375 -1.171875,0.875 0,0.25 0.21875,0.296875 0.296875,0.296875 0.125,0 0.28125,-0.09375 0.28125,-0.296875 0,-0.171875 -0.125,-0.28125 -0.28125,-0.28125 0.140625,-0.234375 0.4375,-0.375 0.765625,-0.375 0.484375,0 0.890625,0.28125 0.890625,0.765625 0,0.421875 -0.296875,0.75 -0.671875,1.0625 l -1.21875,1.03125 C 0.46875,-0.1875 0.453125,-0.1875 0.453125,-0.15625 V 0 h 2.3125 z m 0,0" />
      </symbol>
      <symbol
         style="overflow:visible"
         overflow="visible"
         id="textext-79878c5c-5">
        <path
           inkscape:connector-curvature="0"
           style="stroke:none"
           id="path4520"
           d="m 2.328125,-4.4375 c 0,-0.1875 0,-0.1875 -0.203125,-0.1875 -0.453125,0.4375 -1.078125,0.4375 -1.359375,0.4375 v 0.25 c 0.15625,0 0.625,0 1,-0.1875 v 3.546875 c 0,0.234375 0,0.328125 -0.6875,0.328125 H 0.8125 V 0 c 0.125,0 0.984375,-0.03125 1.234375,-0.03125 0.21875,0 1.09375,0.03125 1.25,0.03125 V -0.25 H 3.03125 c -0.703125,0 -0.703125,-0.09375 -0.703125,-0.328125 z m 0,0" />
      </symbol>
    </g>
    <g
       id="g4809">
      <symbol
         style="overflow:visible"
         overflow="visible"
         id="textext-0c6f952a-0">
        <path
           inkscape:connector-curvature="0"
           style="stroke:none"
           id="path4812"
           d="M 3.328125,-3.015625 C 3.390625,-3.265625 3.625,-4.1875 4.3125,-4.1875 c 0.046875,0 0.296875,0 0.5,0.125 C 4.53125,-4 4.34375,-3.765625 4.34375,-3.515625 c 0,0.15625 0.109375,0.34375 0.375,0.34375 0.21875,0 0.53125,-0.171875 0.53125,-0.578125 0,-0.515625 -0.578125,-0.65625 -0.921875,-0.65625 -0.578125,0 -0.921875,0.53125 -1.046875,0.75 -0.25,-0.65625 -0.78125,-0.75 -1.078125,-0.75 -1.03125,0 -1.609375,1.28125 -1.609375,1.53125 0,0.109375 0.109375,0.109375 0.125,0.109375 0.078125,0 0.109375,-0.03125 0.125,-0.109375 0.34375,-1.0625 1,-1.3125 1.34375,-1.3125 0.1875,0 0.53125,0.09375 0.53125,0.671875 0,0.3125 -0.171875,0.96875 -0.53125,2.375 -0.15625,0.609375 -0.515625,1.03125 -0.953125,1.03125 -0.0625,0 -0.28125,0 -0.5,-0.125 0.25,-0.0625 0.46875,-0.265625 0.46875,-0.546875 0,-0.265625 -0.21875,-0.34375 -0.359375,-0.34375 -0.3125,0 -0.546875,0.25 -0.546875,0.578125 0,0.453125 0.484375,0.65625 0.921875,0.65625 0.671875,0 1.03125,-0.703125 1.046875,-0.75 0.125,0.359375 0.484375,0.75 1.078125,0.75 1.03125,0 1.59375,-1.28125 1.59375,-1.53125 0,-0.109375 -0.078125,-0.109375 -0.109375,-0.109375 -0.09375,0 -0.109375,0.046875 -0.140625,0.109375 -0.328125,1.078125 -1,1.3125 -1.3125,1.3125 -0.390625,0 -0.546875,-0.3125 -0.546875,-0.65625 0,-0.21875 0.046875,-0.4375 0.15625,-0.875 z m 0,0" />
      </symbol>
      <symbol
         style="overflow:visible"
         overflow="visible"
         id="textext-0c6f952a-1">
        <path
           inkscape:connector-curvature="0"
           style="stroke:none"
           id="path4815"
           d="m 4.953125,-4.8125 c 0,-0.03125 -0.03125,-0.09375 -0.09375,-0.09375 -0.046875,0 -0.046875,0.015625 -0.140625,0.109375 L 4.375,-4.40625 c -0.265625,-0.375 -0.703125,-0.5 -1.125,-0.5 -0.984375,0 -1.859375,0.796875 -1.859375,1.609375 0,0.09375 0.03125,0.375 0.234375,0.640625 0.234375,0.265625 0.5,0.328125 0.96875,0.453125 0.140625,0.03125 0.484375,0.109375 0.59375,0.140625 0.21875,0.046875 0.640625,0.203125 0.640625,0.71875 0,0.5625 -0.59375,1.234375 -1.375,1.234375 -0.625,0 -1.359375,-0.21875 -1.359375,-0.984375 0,-0.078125 0.015625,-0.234375 0.046875,-0.359375 0,-0.03125 0,-0.03125 0,-0.03125 0,-0.09375 -0.078125,-0.09375 -0.109375,-0.09375 -0.09375,0 -0.109375,0.015625 -0.125,0.140625 l -0.359375,1.390625 c -0.015625,0.03125 -0.03125,0.0625 -0.03125,0.109375 0,0.03125 0.03125,0.078125 0.109375,0.078125 0.03125,0 0.046875,-0.015625 0.140625,-0.09375 0.078125,-0.09375 0.25,-0.3125 0.328125,-0.390625 C 1.46875,0.0625 2,0.140625 2.421875,0.140625 c 1.0625,0 1.90625,-0.90625 1.90625,-1.734375 0,-0.296875 -0.125,-0.578125 -0.28125,-0.734375 -0.234375,-0.25 -0.34375,-0.28125 -1.25,-0.5 C 2.65625,-2.859375 2.421875,-2.90625 2.359375,-2.9375 2.1875,-3 1.890625,-3.171875 1.890625,-3.5625 c 0,-0.5625 0.625,-1.109375 1.34375,-1.109375 0.765625,0 1.125,0.421875 1.125,1.078125 0,0.09375 -0.03125,0.25 -0.03125,0.3125 0,0.109375 0.078125,0.109375 0.125,0.109375 0.09375,0 0.109375,-0.046875 0.125,-0.15625 z m 0,0" />
      </symbol>
      <symbol
         style="overflow:visible"
         overflow="visible"
         id="textext-0c6f952a-2">
        <path
           inkscape:connector-curvature="0"
           style="stroke:none"
           id="path4818"
           d="m 5.78125,-2.96875 c 0,-1.09375 -0.796875,-1.9375 -2.03125,-1.9375 -1.65625,0 -3.265625,1.5625 -3.265625,3.140625 0,1.125 0.828125,1.90625 2.03125,1.90625 1.65625,0 3.265625,-1.515625 3.265625,-3.109375 z m -3.21875,2.875 c -0.734375,0 -1.359375,-0.5 -1.359375,-1.53125 0,-0.359375 0.09375,-1.34375 0.734375,-2.140625 0.46875,-0.5625 1.140625,-0.90625 1.765625,-0.90625 0.71875,0 1.390625,0.453125 1.390625,1.46875 0,0.5 -0.21875,1.53125 -0.859375,2.265625 C 3.75,-0.375 3.109375,-0.09375 2.5625,-0.09375 Z m 0,0" />
      </symbol>
      <symbol
         style="overflow:visible"
         overflow="visible"
         id="textext-0c6f952a-3">
        <path
           inkscape:connector-curvature="0"
           style="stroke:none"
           id="path4821"
           d="m 1.46875,-0.109375 c 0,0.375 -0.0625,0.828125 -0.546875,1.265625 C 0.90625,1.1875 0.875,1.21875 0.875,1.25 c 0,0.046875 0.0625,0.09375 0.09375,0.09375 0.109375,0 0.703125,-0.5625 0.703125,-1.390625 0,-0.421875 -0.171875,-0.75 -0.5,-0.75 -0.21875,0 -0.390625,0.171875 -0.390625,0.390625 C 0.78125,-0.1875 0.9375,0 1.1875,0 1.359375,0 1.46875,-0.109375 1.46875,-0.109375 Z m 0,0" />
      </symbol>
      <symbol
         style="overflow:visible"
         overflow="visible"
         id="textext-0c6f952a-4">
        <path
           inkscape:connector-curvature="0"
           style="stroke:none"
           id="path4824"
           d="M 2.9375,-0.96875 H 2.71875 c 0,0.09375 -0.0625,0.40625 -0.140625,0.453125 -0.03125,0.03125 -0.453125,0.03125 -0.53125,0.03125 H 1.078125 C 1.40625,-0.71875 1.765625,-1 2.0625,-1.203125 c 0.453125,-0.3125 0.875,-0.59375 0.875,-1.125 0,-0.640625 -0.609375,-0.984375 -1.3125,-0.984375 -0.671875,0 -1.171875,0.375 -1.171875,0.875 0,0.25 0.21875,0.296875 0.296875,0.296875 0.125,0 0.28125,-0.09375 0.28125,-0.296875 0,-0.171875 -0.125,-0.28125 -0.28125,-0.28125 0.140625,-0.234375 0.4375,-0.375 0.765625,-0.375 0.484375,0 0.890625,0.28125 0.890625,0.765625 0,0.421875 -0.296875,0.75 -0.671875,1.0625 l -1.21875,1.03125 C 0.46875,-0.1875 0.453125,-0.1875 0.453125,-0.15625 V 0 h 2.3125 z m 0,0" />
      </symbol>
      <symbol
         style="overflow:visible"
         overflow="visible"
         id="textext-0c6f952a-5">
        <path
           inkscape:connector-curvature="0"
           style="stroke:none"
           id="path4827"
           d="m 2.328125,-4.4375 c 0,-0.1875 0,-0.1875 -0.203125,-0.1875 -0.453125,0.4375 -1.078125,0.4375 -1.359375,0.4375 v 0.25 c 0.15625,0 0.625,0 1,-0.1875 v 3.546875 c 0,0.234375 0,0.328125 -0.6875,0.328125 H 0.8125 V 0 c 0.125,0 0.984375,-0.03125 1.234375,-0.03125 0.21875,0 1.09375,0.03125 1.25,0.03125 V -0.25 H 3.03125 c -0.703125,0 -0.703125,-0.09375 -0.703125,-0.328125 z m 0,0" />
      </symbol>
    </g>
  </defs>
  <text
     xml:space="preserve"
     y="624.65674"
     x="127.88842"
     style="font-style:italic;font-weight:normal;line-height:0%;font-family:'Times New Roman';-inkscape-font-specification:'Sans Italic';letter-spacing:0px;word-spacing:0px;fill:#000000;fill-opacity:1;stroke:none"
     id="text3055"><tspan
       style="font-size:40px;line-height:1.25"
       sodipodi:role="line"
       y="624.65674"
       x="127.88842"
       id="tspan3057">0.02</tspan></text>
  <text
     xml:space="preserve"
     y="560.15564"
     x="127.34643"
     style="font-style:italic;font-weight:normal;line-height:0%;font-family:'Times New Roman';-inkscape-font-specification:'Sans Italic';letter-spacing:0px;word-spacing:0px;fill:#000000;fill-opacity:1;stroke:none"
     id="text3059"><tspan
       style="font-size:40px;line-height:1.25"
       sodipodi:role="line"
       y="560.15564"
       x="127.34643"
       id="tspan3061">0.04</tspan></text>
  <text
     xml:space="preserve"
     y="494.65677"
     x="126.1892"
     style="font-style:italic;font-weight:normal;line-height:0%;font-family:'Times New Roman';-inkscape-font-specification:'Sans Italic';letter-spacing:0px;word-spacing:0px;fill:#000000;fill-opacity:1;stroke:none"
     id="text3063"><tspan
       style="font-size:40px;line-height:1.25"
       sodipodi:role="line"
       y="494.65677"
       x="126.1892"
       id="tspan3065">0.06</tspan></text>
  <text
     xml:space="preserve"
     y="425.65677"
     x="127.28783"
     style="font-style:italic;font-weight:normal;line-height:0%;font-family:'Times New Roman';-inkscape-font-specification:'Sans Italic';letter-spacing:0px;word-spacing:0px;fill:#000000;fill-opacity:1;stroke:none"
     id="text3067"><tspan
       style="font-size:40px;line-height:1.25"
       sodipodi:role="line"
       y="425.65677"
       x="127.28783"
       id="tspan3069">0.08</tspan></text>
  <text
     xml:space="preserve"
     y="358.65677"
     x="127.14135"
     style="font-style:italic;font-weight:normal;line-height:0%;font-family:'Times New Roman';-inkscape-font-specification:'Sans Italic';letter-spacing:0px;word-spacing:0px;fill:#000000;fill-opacity:1;stroke:none"
     id="text3071"><tspan
       style="font-size:40px;line-height:1.25"
       sodipodi:role="line"
       y="358.65677"
       x="127.14135"
       id="tspan3073">0.10</tspan></text>
  <text
     xml:space="preserve"
     y="293.65677"
     x="127.88842"
     style="font-style:italic;font-weight:normal;line-height:0%;font-family:'Times New Roman';-inkscape-font-specification:'Sans Italic';letter-spacing:0px;word-spacing:0px;fill:#000000;fill-opacity:1;stroke:none"
     id="text3075"><tspan
       style="font-size:40px;line-height:1.25"
       sodipodi:role="line"
       y="293.65677"
       x="127.88842"
       id="tspan3077">0.12</tspan></text>
  <text
     xml:space="preserve"
     y="226.65675"
     x="127.34643"
     style="font-style:italic;font-weight:normal;line-height:0%;font-family:'Times New Roman';-inkscape-font-specification:'Sans Italic';letter-spacing:0px;word-spacing:0px;fill:#000000;fill-opacity:1;stroke:none"
     id="text3079"><tspan
       style="font-size:40px;line-height:1.25"
       sodipodi:role="line"
       y="226.65675"
       x="127.34643"
       id="tspan3081">0.14</tspan></text>
  <text
     xml:space="preserve"
     y="162.65675"
     x="126.1892"
     style="font-style:italic;font-weight:normal;line-height:0%;font-family:'Times New Roman';-inkscape-font-specification:'Sans Italic';letter-spacing:0px;word-spacing:0px;fill:#000000;fill-opacity:1;stroke:none"
     id="text3083"><tspan
       style="font-size:40px;line-height:1.25"
       sodipodi:role="line"
       y="162.65675"
       x="126.1892"
       id="tspan3085">0.16</tspan></text>
  <text
     xml:space="preserve"
     y="95.656746"
     x="127.28783"
     style="font-style:italic;font-weight:normal;line-height:0%;font-family:'Times New Roman';-inkscape-font-specification:'Sans Italic';letter-spacing:0px;word-spacing:0px;fill:#000000;fill-opacity:1;stroke:none"
     id="text3087"><tspan
       style="font-size:40px;line-height:1.25"
       sodipodi:role="line"
       y="95.656746"
       x="127.28783"
       id="tspan3089">0.18</tspan></text>
  <text
     xml:space="preserve"
     y="26.925074"
     x="127.14135"
     style="font-style:italic;font-weight:normal;line-height:0%;font-family:'Times New Roman';-inkscape-font-specification:'Sans Italic';letter-spacing:0px;word-spacing:0px;fill:#000000;fill-opacity:1;stroke:none"
     id="text3091"><tspan
       style="font-size:40px;line-height:1.25"
       sodipodi:role="line"
       y="26.925074"
       x="127.14135"
       id="tspan3093">0.20</tspan></text>
  <text
     xml:space="preserve"
     y="683.65674"
     x="174.64136"
     style="font-style:italic;font-weight:normal;line-height:0%;font-family:'Times New Roman';-inkscape-font-specification:'Sans Italic';letter-spacing:0px;word-spacing:0px;fill:#000000;fill-opacity:1;stroke:none"
     id="text3095"><tspan
       style="font-size:40px;line-height:1.25"
       sodipodi:role="line"
       y="683.65674"
       x="174.64136"
       id="tspan3097">0</tspan></text>
  <g
     ns6:text="$x_{SO_2}$"
     ns6:preamble="/home/mjki2mb2/.inkscape/preamble.tex"
     transform="matrix(4.5,0,0,4.5,-574.75517,165.00011)"
     id="g3174">
    <defs
       id="defs3176">
      <g
         id="g3178">
        <symbol
           style="overflow:visible"
           overflow="visible"
           id="textext-a0d531ee-0">
          <path
             inkscape:connector-curvature="0"
             style="stroke:none"
             id="path3181"
             d="M 3.328125,-3.015625 C 3.390625,-3.265625 3.625,-4.1875 4.3125,-4.1875 c 0.046875,0 0.296875,0 0.5,0.125 C 4.53125,-4 4.34375,-3.765625 4.34375,-3.515625 c 0,0.15625 0.109375,0.34375 0.375,0.34375 0.21875,0 0.53125,-0.171875 0.53125,-0.578125 0,-0.515625 -0.578125,-0.65625 -0.921875,-0.65625 -0.578125,0 -0.921875,0.53125 -1.046875,0.75 -0.25,-0.65625 -0.78125,-0.75 -1.078125,-0.75 -1.03125,0 -1.609375,1.28125 -1.609375,1.53125 0,0.109375 0.109375,0.109375 0.125,0.109375 0.078125,0 0.109375,-0.03125 0.125,-0.109375 0.34375,-1.0625 1,-1.3125 1.34375,-1.3125 0.1875,0 0.53125,0.09375 0.53125,0.671875 0,0.3125 -0.171875,0.96875 -0.53125,2.375 -0.15625,0.609375 -0.515625,1.03125 -0.953125,1.03125 -0.0625,0 -0.28125,0 -0.5,-0.125 0.25,-0.0625 0.46875,-0.265625 0.46875,-0.546875 0,-0.265625 -0.21875,-0.34375 -0.359375,-0.34375 -0.3125,0 -0.546875,0.25 -0.546875,0.578125 0,0.453125 0.484375,0.65625 0.921875,0.65625 0.671875,0 1.03125,-0.703125 1.046875,-0.75 0.125,0.359375 0.484375,0.75 1.078125,0.75 1.03125,0 1.59375,-1.28125 1.59375,-1.53125 0,-0.109375 -0.078125,-0.109375 -0.109375,-0.109375 -0.09375,0 -0.109375,0.046875 -0.140625,0.109375 -0.328125,1.078125 -1,1.3125 -1.3125,1.3125 -0.390625,0 -0.546875,-0.3125 -0.546875,-0.65625 0,-0.21875 0.046875,-0.4375 0.15625,-0.875 z m 0,0" />
        </symbol>
        <symbol
           style="overflow:visible"
           overflow="visible"
           id="textext-a0d531ee-1">
          <path
             inkscape:connector-curvature="0"
             style="stroke:none"
             id="path3184"
             d="m 4.953125,-4.8125 c 0,-0.03125 -0.03125,-0.09375 -0.09375,-0.09375 -0.046875,0 -0.046875,0.015625 -0.140625,0.109375 L 4.375,-4.40625 c -0.265625,-0.375 -0.703125,-0.5 -1.125,-0.5 -0.984375,0 -1.859375,0.796875 -1.859375,1.609375 0,0.09375 0.03125,0.375 0.234375,0.640625 0.234375,0.265625 0.5,0.328125 0.96875,0.453125 0.140625,0.03125 0.484375,0.109375 0.59375,0.140625 0.21875,0.046875 0.640625,0.203125 0.640625,0.71875 0,0.5625 -0.59375,1.234375 -1.375,1.234375 -0.625,0 -1.359375,-0.21875 -1.359375,-0.984375 0,-0.078125 0.015625,-0.234375 0.046875,-0.359375 0,-0.03125 0,-0.03125 0,-0.03125 0,-0.09375 -0.078125,-0.09375 -0.109375,-0.09375 -0.09375,0 -0.109375,0.015625 -0.125,0.140625 l -0.359375,1.390625 c -0.015625,0.03125 -0.03125,0.0625 -0.03125,0.109375 0,0.03125 0.03125,0.078125 0.109375,0.078125 0.03125,0 0.046875,-0.015625 0.140625,-0.09375 0.078125,-0.09375 0.25,-0.3125 0.328125,-0.390625 C 1.46875,0.0625 2,0.140625 2.421875,0.140625 c 1.0625,0 1.90625,-0.90625 1.90625,-1.734375 0,-0.296875 -0.125,-0.578125 -0.28125,-0.734375 -0.234375,-0.25 -0.34375,-0.28125 -1.25,-0.5 C 2.65625,-2.859375 2.421875,-2.90625 2.359375,-2.9375 2.1875,-3 1.890625,-3.171875 1.890625,-3.5625 c 0,-0.5625 0.625,-1.109375 1.34375,-1.109375 0.765625,0 1.125,0.421875 1.125,1.078125 0,0.09375 -0.03125,0.25 -0.03125,0.3125 0,0.109375 0.078125,0.109375 0.125,0.109375 0.09375,0 0.109375,-0.046875 0.125,-0.15625 z m 0,0" />
        </symbol>
        <symbol
           style="overflow:visible"
           overflow="visible"
           id="textext-a0d531ee-2">
          <path
             inkscape:connector-curvature="0"
             style="stroke:none"
             id="path3187"
             d="m 5.78125,-2.96875 c 0,-1.09375 -0.796875,-1.9375 -2.03125,-1.9375 -1.65625,0 -3.265625,1.5625 -3.265625,3.140625 0,1.125 0.828125,1.90625 2.03125,1.90625 1.65625,0 3.265625,-1.515625 3.265625,-3.109375 z m -3.21875,2.875 c -0.734375,0 -1.359375,-0.5 -1.359375,-1.53125 0,-0.359375 0.09375,-1.34375 0.734375,-2.140625 0.46875,-0.5625 1.140625,-0.90625 1.765625,-0.90625 0.71875,0 1.390625,0.453125 1.390625,1.46875 0,0.5 -0.21875,1.53125 -0.859375,2.265625 C 3.75,-0.375 3.109375,-0.09375 2.5625,-0.09375 Z m 0,0" />
        </symbol>
        <symbol
           style="overflow:visible"
           overflow="visible"
           id="textext-a0d531ee-3">
          <path
             inkscape:connector-curvature="0"
             style="stroke:none"
             id="path3190"
             d="M 2.9375,-0.96875 H 2.71875 c 0,0.09375 -0.0625,0.40625 -0.140625,0.453125 -0.03125,0.03125 -0.453125,0.03125 -0.53125,0.03125 H 1.078125 C 1.40625,-0.71875 1.765625,-1 2.0625,-1.203125 c 0.453125,-0.3125 0.875,-0.59375 0.875,-1.125 0,-0.640625 -0.609375,-0.984375 -1.3125,-0.984375 -0.671875,0 -1.171875,0.375 -1.171875,0.875 0,0.25 0.21875,0.296875 0.296875,0.296875 0.125,0 0.28125,-0.09375 0.28125,-0.296875 0,-0.171875 -0.125,-0.28125 -0.28125,-0.28125 0.140625,-0.234375 0.4375,-0.375 0.765625,-0.375 0.484375,0 0.890625,0.28125 0.890625,0.765625 0,0.421875 -0.296875,0.75 -0.671875,1.0625 l -1.21875,1.03125 C 0.46875,-0.1875 0.453125,-0.1875 0.453125,-0.15625 V 0 h 2.3125 z m 0,0" />
        </symbol>
      </g>
    </defs>
    <g
       id="textext-a0d531ee-4">
      <g
         style="fill:#000000;fill-opacity:1"
         id="g3193">
        <use
           xlink:href="#textext-a0d531ee-0"
           y="134.765"
           x="223.43201"
           width="1146"
           id="use3195"
           height="984" />
      </g>
      <g
         style="fill:#000000;fill-opacity:1"
         id="g3197">
        <use
           xlink:href="#textext-a0d531ee-1"
           y="136.259"
           x="229.12601"
           width="1146"
           id="use3199"
           height="984" />
      </g>
      <g
         style="fill:#000000;fill-opacity:1"
         id="g3201">
        <use
           xlink:href="#textext-a0d531ee-2"
           y="136.259"
           x="234.40169"
           width="1146"
           id="use3203"
           height="984" />
      </g>
      <g
         style="fill:#000000;fill-opacity:1"
         id="g3205">
        <use
           xlink:href="#textext-a0d531ee-3"
           y="137.256"
           x="240.459"
           width="1146"
           id="use3207"
           height="984" />
      </g>
    </g>
  </g>
  <g
     ns6:text="$y_{SO_2}$"
     ns6:preamble="/home/mjki2mb2/.inkscape/preamble.tex"
     transform="matrix(0,-4.5,4.5,0,-527.24104,1397.9076)"
     id="g3361">
    <defs
       id="defs3363">
      <g
         id="g3365">
        <symbol
           style="overflow:visible"
           overflow="visible"
           id="textext-db0c85b0-0">
          <path
             inkscape:connector-curvature="0"
             style="stroke:none"
             id="path3368"
             d="m 4.84375,-3.796875 c 0.046875,-0.140625 0.046875,-0.15625 0.046875,-0.234375 0,-0.171875 -0.140625,-0.265625 -0.296875,-0.265625 -0.09375,0 -0.25,0.0625 -0.34375,0.203125 -0.015625,0.0625 -0.109375,0.359375 -0.140625,0.546875 -0.078125,0.25 -0.140625,0.53125 -0.203125,0.796875 l -0.453125,1.796875 c -0.03125,0.140625 -0.46875,0.84375 -1.125,0.84375 -0.5,0 -0.609375,-0.4375 -0.609375,-0.8125 C 1.71875,-1.375 1.890625,-2 2.21875,-2.875 2.375,-3.28125 2.421875,-3.390625 2.421875,-3.59375 c 0,-0.4375 -0.3125,-0.8125 -0.8125,-0.8125 -0.953125,0 -1.3125,1.453125 -1.3125,1.53125 0,0.109375 0.09375,0.109375 0.109375,0.109375 0.109375,0 0.109375,-0.03125 0.15625,-0.1875 0.28125,-0.9375 0.671875,-1.234375 1.015625,-1.234375 0.078125,0 0.25,0 0.25,0.3125 0,0.25 -0.109375,0.515625 -0.171875,0.703125 -0.40625,1.0625 -0.578125,1.625 -0.578125,2.09375 0,0.890625 0.625,1.1875 1.21875,1.1875 0.390625,0 0.71875,-0.171875 1,-0.453125 -0.125,0.515625 -0.25,1.015625 -0.640625,1.546875 -0.265625,0.328125 -0.640625,0.625 -1.09375,0.625 -0.140625,0 -0.59375,-0.03125 -0.765625,-0.421875 0.15625,0 0.296875,0 0.421875,-0.125 C 1.328125,1.203125 1.421875,1.0625 1.421875,0.875 1.421875,0.5625 1.15625,0.53125 1.0625,0.53125 0.828125,0.53125 0.5,0.6875 0.5,1.171875 c 0,0.5 0.4375,0.875 1.0625,0.875 1.015625,0 2.046875,-0.90625 2.328125,-2.03125 z m 0,0" />
        </symbol>
        <symbol
           style="overflow:visible"
           overflow="visible"
           id="textext-db0c85b0-1">
          <path
             inkscape:connector-curvature="0"
             style="stroke:none"
             id="path3371"
             d="m 4.953125,-4.8125 c 0,-0.03125 -0.03125,-0.09375 -0.09375,-0.09375 -0.046875,0 -0.046875,0.015625 -0.140625,0.109375 L 4.375,-4.40625 c -0.265625,-0.375 -0.703125,-0.5 -1.125,-0.5 -0.984375,0 -1.859375,0.796875 -1.859375,1.609375 0,0.09375 0.03125,0.375 0.234375,0.640625 0.234375,0.265625 0.5,0.328125 0.96875,0.453125 0.140625,0.03125 0.484375,0.109375 0.59375,0.140625 0.21875,0.046875 0.640625,0.203125 0.640625,0.71875 0,0.5625 -0.59375,1.234375 -1.375,1.234375 -0.625,0 -1.359375,-0.21875 -1.359375,-0.984375 0,-0.078125 0.015625,-0.234375 0.046875,-0.359375 0,-0.03125 0,-0.03125 0,-0.03125 0,-0.09375 -0.078125,-0.09375 -0.109375,-0.09375 -0.09375,0 -0.109375,0.015625 -0.125,0.140625 l -0.359375,1.390625 c -0.015625,0.03125 -0.03125,0.0625 -0.03125,0.109375 0,0.03125 0.03125,0.078125 0.109375,0.078125 0.03125,0 0.046875,-0.015625 0.140625,-0.09375 0.078125,-0.09375 0.25,-0.3125 0.328125,-0.390625 C 1.46875,0.0625 2,0.140625 2.421875,0.140625 c 1.0625,0 1.90625,-0.90625 1.90625,-1.734375 0,-0.296875 -0.125,-0.578125 -0.28125,-0.734375 -0.234375,-0.25 -0.34375,-0.28125 -1.25,-0.5 C 2.65625,-2.859375 2.421875,-2.90625 2.359375,-2.9375 2.1875,-3 1.890625,-3.171875 1.890625,-3.5625 c 0,-0.5625 0.625,-1.109375 1.34375,-1.109375 0.765625,0 1.125,0.421875 1.125,1.078125 0,0.09375 -0.03125,0.25 -0.03125,0.3125 0,0.109375 0.078125,0.109375 0.125,0.109375 0.09375,0 0.109375,-0.046875 0.125,-0.15625 z m 0,0" />
        </symbol>
        <symbol
           style="overflow:visible"
           overflow="visible"
           id="textext-db0c85b0-2">
          <path
             inkscape:connector-curvature="0"
             style="stroke:none"
             id="path3374"
             d="m 5.78125,-2.96875 c 0,-1.09375 -0.796875,-1.9375 -2.03125,-1.9375 -1.65625,0 -3.265625,1.5625 -3.265625,3.140625 0,1.125 0.828125,1.90625 2.03125,1.90625 1.65625,0 3.265625,-1.515625 3.265625,-3.109375 z m -3.21875,2.875 c -0.734375,0 -1.359375,-0.5 -1.359375,-1.53125 0,-0.359375 0.09375,-1.34375 0.734375,-2.140625 0.46875,-0.5625 1.140625,-0.90625 1.765625,-0.90625 0.71875,0 1.390625,0.453125 1.390625,1.46875 0,0.5 -0.21875,1.53125 -0.859375,2.265625 C 3.75,-0.375 3.109375,-0.09375 2.5625,-0.09375 Z m 0,0" />
        </symbol>
        <symbol
           style="overflow:visible"
           overflow="visible"
           id="textext-db0c85b0-3">
          <path
             inkscape:connector-curvature="0"
             style="stroke:none"
             id="path3377"
             d="M 2.9375,-0.96875 H 2.71875 c 0,0.09375 -0.0625,0.40625 -0.140625,0.453125 -0.03125,0.03125 -0.453125,0.03125 -0.53125,0.03125 H 1.078125 C 1.40625,-0.71875 1.765625,-1 2.0625,-1.203125 c 0.453125,-0.3125 0.875,-0.59375 0.875,-1.125 0,-0.640625 -0.609375,-0.984375 -1.3125,-0.984375 -0.671875,0 -1.171875,0.375 -1.171875,0.875 0,0.25 0.21875,0.296875 0.296875,0.296875 0.125,0 0.28125,-0.09375 0.28125,-0.296875 0,-0.171875 -0.125,-0.28125 -0.28125,-0.28125 0.140625,-0.234375 0.4375,-0.375 0.765625,-0.375 0.484375,0 0.890625,0.28125 0.890625,0.765625 0,0.421875 -0.296875,0.75 -0.671875,1.0625 l -1.21875,1.03125 C 0.46875,-0.1875 0.453125,-0.1875 0.453125,-0.15625 V 0 h 2.3125 z m 0,0" />
        </symbol>
      </g>
    </defs>
    <g
       id="textext-db0c85b0-4">
      <g
         style="fill:#000000;fill-opacity:1"
         id="g3380">
        <use
           xlink:href="#textext-db0c85b0-0"
           y="134.765"
           x="223.43201"
           width="1146"
           id="use3382"
           height="984" />
      </g>
      <g
         style="fill:#000000;fill-opacity:1"
         id="g3384">
        <use
           xlink:href="#textext-db0c85b0-1"
           y="136.259"
           x="228.317"
           width="1146"
           id="use3386"
           height="984" />
      </g>
      <g
         style="fill:#000000;fill-opacity:1"
         id="g3388">
        <use
           xlink:href="#textext-db0c85b0-2"
           y="136.259"
           x="233.59268"
           width="1146"
           id="use3390"
           height="984" />
      </g>
      <g
         style="fill:#000000;fill-opacity:1"
         id="g3392">
        <use
           xlink:href="#textext-db0c85b0-3"
           y="137.256"
           x="239.64999"
           width="1146"
           id="use3394"
           height="984" />
      </g>
    </g>
  </g>
  <text
     xml:space="preserve"
     y="724.33142"
     x="211.97861"
     style="font-style:italic;font-weight:normal;line-height:0%;font-family:'Times New Roman';-inkscape-font-specification:'Sans Italic';letter-spacing:0px;word-spacing:0px;fill:#000000;fill-opacity:1;stroke:none"
     id="text3035"><tspan
       style="font-size:40px;line-height:1.25"
       sodipodi:role="line"
       y="724.33142"
       x="211.97861"
       id="tspan3037">0</tspan></text>
  <text
     xml:space="preserve"
     y="724.33142"
     x="296.71054"
     style="font-style:italic;font-weight:normal;line-height:0%;font-family:'Times New Roman';-inkscape-font-specification:'Sans Italic';letter-spacing:0px;word-spacing:0px;fill:#000000;fill-opacity:1;stroke:none"
     id="text3039"><tspan
       style="font-size:40px;line-height:1.25"
       sodipodi:role="line"
       y="724.33142"
       x="296.71054"
       id="tspan3041">0.002</tspan></text>
  <text
     xml:space="preserve"
     y="724.33142"
     x="426.34918"
     style="font-style:italic;font-weight:normal;line-height:0%;font-family:'Times New Roman';-inkscape-font-specification:'Sans Italic';letter-spacing:0px;word-spacing:0px;fill:#000000;fill-opacity:1;stroke:none"
     id="text3043"><tspan
       style="font-size:40px;line-height:1.25"
       sodipodi:role="line"
       y="724.33142"
       x="426.34918"
       id="tspan3045">0.004</tspan></text>
  <text
     xml:space="preserve"
     y="724.33142"
     x="561.5777"
     style="font-style:italic;font-weight:normal;line-height:0%;font-family:'Times New Roman';-inkscape-font-specification:'Sans Italic';letter-spacing:0px;word-spacing:0px;fill:#000000;fill-opacity:1;stroke:none"
     id="text3047"><tspan
       style="font-size:40px;line-height:1.25"
       sodipodi:role="line"
       y="724.33142"
       x="561.5777"
       id="tspan3049">0.006</tspan></text>
  <text
     xml:space="preserve"
     y="724.33142"
     x="696.31018"
     style="font-style:italic;font-weight:normal;line-height:0%;font-family:'Times New Roman';-inkscape-font-specification:'Sans Italic';letter-spacing:0px;word-spacing:0px;fill:#000000;fill-opacity:1;stroke:none"
     id="text3051"><tspan
       style="font-size:40px;line-height:1.25"
       sodipodi:role="line"
       y="724.33142"
       x="696.31018"
       id="tspan3053">0.008</tspan></text>
  <path
     inkscape:connector-curvature="0"
     sodipodi:nodetypes="ccc"
     style="fill:none;stroke:#000000;stroke-width:3.75;stroke-linecap:butt;stroke-linejoin:miter;stroke-miterlimit:4;stroke-dasharray:none;stroke-opacity:1"
     id="path2989"
     d="m 210.27694,13.69581 v 670 h 532" />
  <path
     inkscape:connector-curvature="0"
     style="fill:none;stroke:#000000;stroke-width:3.75;stroke-linecap:butt;stroke-linejoin:miter;stroke-miterlimit:4;stroke-dasharray:none;stroke-opacity:1"
     id="path2991"
     d="m 210.27694,85.69581 h 20" />
  <path
     inkscape:connector-curvature="0"
     style="fill:none;stroke:#000000;stroke-width:3.75;stroke-linecap:butt;stroke-linejoin:miter;stroke-miterlimit:4;stroke-dasharray:none;stroke-opacity:1"
     id="path2993"
     d="m 210.27694,152.69581 h 20" />
  <path
     inkscape:connector-curvature="0"
     style="fill:none;stroke:#000000;stroke-width:3.75;stroke-linecap:butt;stroke-linejoin:miter;stroke-miterlimit:4;stroke-dasharray:none;stroke-opacity:1"
     id="path2995"
     d="m 210.27694,216.69581 h 20" />
  <path
     inkscape:connector-curvature="0"
     style="fill:none;stroke:#000000;stroke-width:3.75;stroke-linecap:butt;stroke-linejoin:miter;stroke-miterlimit:4;stroke-dasharray:none;stroke-opacity:1"
     id="path2997"
     d="m 210.27694,283.69581 h 20" />
  <path
     inkscape:connector-curvature="0"
     style="fill:none;stroke:#000000;stroke-width:3.75;stroke-linecap:butt;stroke-linejoin:miter;stroke-miterlimit:4;stroke-dasharray:none;stroke-opacity:1"
     id="path2999"
     d="m 210.27694,415.69581 h 20" />
  <path
     inkscape:connector-curvature="0"
     style="fill:none;stroke:#000000;stroke-width:3.75;stroke-linecap:butt;stroke-linejoin:miter;stroke-miterlimit:4;stroke-dasharray:none;stroke-opacity:1"
     id="path3001"
     d="m 210.27694,484.69581 h 20" />
  <path
     inkscape:connector-curvature="0"
     style="fill:none;stroke:#000000;stroke-width:3.75;stroke-linecap:butt;stroke-linejoin:miter;stroke-miterlimit:4;stroke-dasharray:none;stroke-opacity:1"
     id="path3003"
     d="m 210.27694,614.69581 h 20" />
  <path
     inkscape:connector-curvature="0"
     style="fill:none;stroke:#000000;stroke-width:3.75;stroke-linecap:butt;stroke-linejoin:miter;stroke-miterlimit:4;stroke-dasharray:none;stroke-opacity:1"
     id="path3005"
     d="m 272.27694,683.69581 v -20" />
  <path
     inkscape:connector-curvature="0"
     style="fill:none;stroke:#000000;stroke-width:3.75;stroke-linecap:butt;stroke-linejoin:miter;stroke-miterlimit:4;stroke-dasharray:none;stroke-opacity:1"
     id="path3007"
     d="m 342.27694,683.69581 v -20" />
  <path
     inkscape:connector-curvature="0"
     style="fill:none;stroke:#000000;stroke-width:3.75;stroke-linecap:butt;stroke-linejoin:miter;stroke-miterlimit:4;stroke-dasharray:none;stroke-opacity:1"
     id="path3009"
     d="m 410.27694,683.69581 v -20" />
  <path
     inkscape:connector-curvature="0"
     style="fill:none;stroke:#000000;stroke-width:3.75;stroke-linecap:butt;stroke-linejoin:miter;stroke-miterlimit:4;stroke-dasharray:none;stroke-opacity:1"
     id="path3011"
     d="m 472.27694,683.69581 v -20" />
  <path
     inkscape:connector-curvature="0"
     style="fill:none;stroke:#000000;stroke-width:3.75;stroke-linecap:butt;stroke-linejoin:miter;stroke-miterlimit:4;stroke-dasharray:none;stroke-opacity:1"
     id="path3013"
     d="m 541.27694,683.69581 v -20" />
  <path
     inkscape:connector-curvature="0"
     style="fill:none;stroke:#000000;stroke-width:3.75;stroke-linecap:butt;stroke-linejoin:miter;stroke-miterlimit:4;stroke-dasharray:none;stroke-opacity:1"
     id="path3015"
     d="m 608.27694,683.69581 v -20" />
  <path
     inkscape:connector-curvature="0"
     style="fill:none;stroke:#000000;stroke-width:3.75;stroke-linecap:butt;stroke-linejoin:miter;stroke-miterlimit:4;stroke-dasharray:none;stroke-opacity:1"
     id="path3017"
     d="m 742.27694,683.69581 v -20" />
  <path
     inkscape:connector-curvature="0"
     style="fill:none;stroke:#000000;stroke-width:3.75;stroke-linecap:butt;stroke-linejoin:miter;stroke-miterlimit:4;stroke-dasharray:none;stroke-opacity:1"
     id="path3021"
     d="m 210.27694,348.69581 h 20" />
  <path
     inkscape:connector-curvature="0"
     style="fill:none;stroke:#000000;stroke-width:3.75;stroke-linecap:butt;stroke-linejoin:miter;stroke-miterlimit:4;stroke-dasharray:none;stroke-opacity:1"
     id="path3025"
     d="m 210.27694,550.19473 h 20" />
  <path
     inkscape:connector-curvature="0"
     style="fill:none;stroke:#000000;stroke-width:3.75;stroke-linecap:butt;stroke-linejoin:miter;stroke-miterlimit:4;stroke-dasharray:none;stroke-opacity:1"
     id="path3029"
     d="m 676.27694,683.69581 v -20" />
  <path
     inkscape:connector-curvature="0"
     style="fill:none;stroke:#000000;stroke-width:3.75;stroke-linecap:butt;stroke-linejoin:miter;stroke-miterlimit:4;stroke-dasharray:none;stroke-opacity:1"
     id="path2991-7"
     d="m 210.27694,16.96413 h 20" />
  <path
     inkscape:connector-curvature="0"
     sodipodi:nodetypes="cc"
     style="fill:none;stroke:#0000ff;stroke-width:3.75;stroke-linecap:butt;stroke-linejoin:miter;stroke-miterlimit:4;stroke-dasharray:none;stroke-opacity:1"
     id="path3491"
     d="M 210.27694,683.69581 C 272.6369,623.04895 341.60113,549.61288 646.31139,19.65274" />
  <circle
     r="7.8177967"
     cy="614.46991"
     cx="210.37332"
     style="fill:#008080;fill-opacity:1;stroke:none"
     id="path3074" />
  <circle
     r="7.8177967"
     cy="17.332663"
     cx="395.79413"
     style="fill:#008080;fill-opacity:1;stroke:none"
     id="path3074-1" />
  <path
     sodipodi:nodetypes="cc"
     inkscape:connector-type="polyline"
     inkscape:connector-curvature="0"
     inkscape:connection-start-point="d4"
     inkscape:connection-end-point="d4"
     style="fill:#008080;stroke:#008080;stroke-width:3.75;stroke-linecap:butt;stroke-linejoin:miter;stroke-miterlimit:4;stroke-dasharray:none;stroke-opacity:1"
     id="path3096"
     d="M 209.59659,614.5761 395.0174,17.438839" />
  <path
     inkscape:connector-curvature="0"
     sodipodi:nodetypes="cc"
     style="fill:none;stroke:#008000;stroke-width:3;stroke-linecap:butt;stroke-linejoin:miter;stroke-miterlimit:4;stroke-dasharray:3, 3;stroke-dashoffset:0;stroke-opacity:1"
     id="path3094-3"
     d="m 273.50252,408.77066 0,205.98852" />
  <path
     inkscape:connector-curvature="0"
     sodipodi:nodetypes="cc"
     style="fill:none;stroke:#008000;stroke-width:3;stroke-linecap:butt;stroke-linejoin:miter;stroke-miterlimit:4;stroke-dasharray:3, 3;stroke-dashoffset:0;stroke-opacity:1"
     id="path3094-8"
     d="m 273.50252,408.77066 -63.22558,-0.11999" />
  <g
     inkscape:transform-center-y="59.132222"
     inkscape:transform-center-x="16.299004"
     ns6:text="$x_{SO_2,1}$"
     ns6:preamble="/home/mjki2mb2/.inkscape/preamble.tex"
     transform="matrix(0,-4.5,4.5,0,-330.37297,1824.3975)"
     style="fill:#008000"
     id="g4805">
    <defs
       id="defs4807">
      <g
         id="g896">
        <symbol
           style="overflow:visible"
           overflow="visible"
           id="symbol874">
          <path
             inkscape:connector-curvature="0"
             style="stroke:none"
             id="path872"
             d="M 3.328125,-3.015625 C 3.390625,-3.265625 3.625,-4.1875 4.3125,-4.1875 c 0.046875,0 0.296875,0 0.5,0.125 C 4.53125,-4 4.34375,-3.765625 4.34375,-3.515625 c 0,0.15625 0.109375,0.34375 0.375,0.34375 0.21875,0 0.53125,-0.171875 0.53125,-0.578125 0,-0.515625 -0.578125,-0.65625 -0.921875,-0.65625 -0.578125,0 -0.921875,0.53125 -1.046875,0.75 -0.25,-0.65625 -0.78125,-0.75 -1.078125,-0.75 -1.03125,0 -1.609375,1.28125 -1.609375,1.53125 0,0.109375 0.109375,0.109375 0.125,0.109375 0.078125,0 0.109375,-0.03125 0.125,-0.109375 0.34375,-1.0625 1,-1.3125 1.34375,-1.3125 0.1875,0 0.53125,0.09375 0.53125,0.671875 0,0.3125 -0.171875,0.96875 -0.53125,2.375 -0.15625,0.609375 -0.515625,1.03125 -0.953125,1.03125 -0.0625,0 -0.28125,0 -0.5,-0.125 0.25,-0.0625 0.46875,-0.265625 0.46875,-0.546875 0,-0.265625 -0.21875,-0.34375 -0.359375,-0.34375 -0.3125,0 -0.546875,0.25 -0.546875,0.578125 0,0.453125 0.484375,0.65625 0.921875,0.65625 0.671875,0 1.03125,-0.703125 1.046875,-0.75 0.125,0.359375 0.484375,0.75 1.078125,0.75 1.03125,0 1.59375,-1.28125 1.59375,-1.53125 0,-0.109375 -0.078125,-0.109375 -0.109375,-0.109375 -0.09375,0 -0.109375,0.046875 -0.140625,0.109375 -0.328125,1.078125 -1,1.3125 -1.3125,1.3125 -0.390625,0 -0.546875,-0.3125 -0.546875,-0.65625 0,-0.21875 0.046875,-0.4375 0.15625,-0.875 z m 0,0" />
        </symbol>
        <symbol
           style="overflow:visible"
           overflow="visible"
           id="symbol878">
          <path
             inkscape:connector-curvature="0"
             style="stroke:none"
             id="path876"
             d="m 4.953125,-4.8125 c 0,-0.03125 -0.03125,-0.09375 -0.09375,-0.09375 -0.046875,0 -0.046875,0.015625 -0.140625,0.109375 L 4.375,-4.40625 c -0.265625,-0.375 -0.703125,-0.5 -1.125,-0.5 -0.984375,0 -1.859375,0.796875 -1.859375,1.609375 0,0.09375 0.03125,0.375 0.234375,0.640625 0.234375,0.265625 0.5,0.328125 0.96875,0.453125 0.140625,0.03125 0.484375,0.109375 0.59375,0.140625 0.21875,0.046875 0.640625,0.203125 0.640625,0.71875 0,0.5625 -0.59375,1.234375 -1.375,1.234375 -0.625,0 -1.359375,-0.21875 -1.359375,-0.984375 0,-0.078125 0.015625,-0.234375 0.046875,-0.359375 0,-0.03125 0,-0.03125 0,-0.03125 0,-0.09375 -0.078125,-0.09375 -0.109375,-0.09375 -0.09375,0 -0.109375,0.015625 -0.125,0.140625 l -0.359375,1.390625 c -0.015625,0.03125 -0.03125,0.0625 -0.03125,0.109375 0,0.03125 0.03125,0.078125 0.109375,0.078125 0.03125,0 0.046875,-0.015625 0.140625,-0.09375 0.078125,-0.09375 0.25,-0.3125 0.328125,-0.390625 C 1.46875,0.0625 2,0.140625 2.421875,0.140625 c 1.0625,0 1.90625,-0.90625 1.90625,-1.734375 0,-0.296875 -0.125,-0.578125 -0.28125,-0.734375 -0.234375,-0.25 -0.34375,-0.28125 -1.25,-0.5 C 2.65625,-2.859375 2.421875,-2.90625 2.359375,-2.9375 2.1875,-3 1.890625,-3.171875 1.890625,-3.5625 c 0,-0.5625 0.625,-1.109375 1.34375,-1.109375 0.765625,0 1.125,0.421875 1.125,1.078125 0,0.09375 -0.03125,0.25 -0.03125,0.3125 0,0.109375 0.078125,0.109375 0.125,0.109375 0.09375,0 0.109375,-0.046875 0.125,-0.15625 z m 0,0" />
        </symbol>
        <symbol
           style="overflow:visible"
           overflow="visible"
           id="symbol882">
          <path
             inkscape:connector-curvature="0"
             style="stroke:none"
             id="path880"
             d="m 5.78125,-2.96875 c 0,-1.09375 -0.796875,-1.9375 -2.03125,-1.9375 -1.65625,0 -3.265625,1.5625 -3.265625,3.140625 0,1.125 0.828125,1.90625 2.03125,1.90625 1.65625,0 3.265625,-1.515625 3.265625,-3.109375 z m -3.21875,2.875 c -0.734375,0 -1.359375,-0.5 -1.359375,-1.53125 0,-0.359375 0.09375,-1.34375 0.734375,-2.140625 0.46875,-0.5625 1.140625,-0.90625 1.765625,-0.90625 0.71875,0 1.390625,0.453125 1.390625,1.46875 0,0.5 -0.21875,1.53125 -0.859375,2.265625 C 3.75,-0.375 3.109375,-0.09375 2.5625,-0.09375 Z m 0,0" />
        </symbol>
        <symbol
           style="overflow:visible"
           overflow="visible"
           id="symbol886">
          <path
             inkscape:connector-curvature="0"
             style="stroke:none"
             id="path884"
             d="m 1.46875,-0.109375 c 0,0.375 -0.0625,0.828125 -0.546875,1.265625 C 0.90625,1.1875 0.875,1.21875 0.875,1.25 c 0,0.046875 0.0625,0.09375 0.09375,0.09375 0.109375,0 0.703125,-0.5625 0.703125,-1.390625 0,-0.421875 -0.171875,-0.75 -0.5,-0.75 -0.21875,0 -0.390625,0.171875 -0.390625,0.390625 C 0.78125,-0.1875 0.9375,0 1.1875,0 1.359375,0 1.46875,-0.109375 1.46875,-0.109375 Z m 0,0" />
        </symbol>
        <symbol
           style="overflow:visible"
           overflow="visible"
           id="symbol890">
          <path
             inkscape:connector-curvature="0"
             style="stroke:none"
             id="path888"
             d="M 2.9375,-0.96875 H 2.71875 c 0,0.09375 -0.0625,0.40625 -0.140625,0.453125 -0.03125,0.03125 -0.453125,0.03125 -0.53125,0.03125 H 1.078125 C 1.40625,-0.71875 1.765625,-1 2.0625,-1.203125 c 0.453125,-0.3125 0.875,-0.59375 0.875,-1.125 0,-0.640625 -0.609375,-0.984375 -1.3125,-0.984375 -0.671875,0 -1.171875,0.375 -1.171875,0.875 0,0.25 0.21875,0.296875 0.296875,0.296875 0.125,0 0.28125,-0.09375 0.28125,-0.296875 0,-0.171875 -0.125,-0.28125 -0.28125,-0.28125 0.140625,-0.234375 0.4375,-0.375 0.765625,-0.375 0.484375,0 0.890625,0.28125 0.890625,0.765625 0,0.421875 -0.296875,0.75 -0.671875,1.0625 l -1.21875,1.03125 C 0.46875,-0.1875 0.453125,-0.1875 0.453125,-0.15625 V 0 h 2.3125 z m 0,0" />
        </symbol>
        <symbol
           style="overflow:visible"
           overflow="visible"
           id="symbol894">
          <path
             inkscape:connector-curvature="0"
             style="stroke:none"
             id="path892"
             d="m 2.328125,-4.4375 c 0,-0.1875 0,-0.1875 -0.203125,-0.1875 -0.453125,0.4375 -1.078125,0.4375 -1.359375,0.4375 v 0.25 c 0.15625,0 0.625,0 1,-0.1875 v 3.546875 c 0,0.234375 0,0.328125 -0.6875,0.328125 H 0.8125 V 0 c 0.125,0 0.984375,-0.03125 1.234375,-0.03125 0.21875,0 1.09375,0.03125 1.25,0.03125 V -0.25 H 3.03125 c -0.703125,0 -0.703125,-0.09375 -0.703125,-0.328125 z m 0,0" />
        </symbol>
      </g>
    </defs>
    <g
       style="fill:#008000"
       id="textext-0c6f952a-6">
      <g
         style="fill:#008000;fill-opacity:1"
         id="g4830">
        <use
           xlink:href="#textext-0c6f952a-0"
           y="134.765"
           x="223.43201"
           width="726.48761"
           style="fill:#008000"
           id="use4832"
           height="782.7583" />
      </g>
      <g
         style="fill:#008000;fill-opacity:1"
         id="g4834">
        <use
           xlink:href="#textext-0c6f952a-1"
           y="136.259"
           x="229.12601"
           width="726.48761"
           style="fill:#008000"
           id="use4836"
           height="782.7583" />
      </g>
      <g
         style="fill:#008000;fill-opacity:1"
         id="g4838">
        <use
           xlink:href="#textext-0c6f952a-2"
           y="136.259"
           x="234.40169"
           width="726.48761"
           style="fill:#008000"
           id="use4840"
           height="782.7583" />
      </g>
      <g
         style="fill:#008000;fill-opacity:1"
         id="g4842">
        <use
           xlink:href="#textext-0c6f952a-4"
           y="137.256"
           x="240.459"
           width="726.48761"
           style="fill:#008000"
           id="use4844"
           height="782.7583" />
      </g>
      <g
         style="fill:#008000;fill-opacity:1"
         id="g4846">
        <use
           xlink:href="#textext-0c6f952a-3"
           y="136.259"
           x="244.347"
           width="726.48761"
           style="fill:#008000"
           id="use4848"
           height="782.7583" />
      </g>
      <g
         style="fill:#008000;fill-opacity:1"
         id="g4850">
        <use
           xlink:href="#textext-0c6f952a-5"
           y="136.259"
           x="246.713"
           width="726.48761"
           style="fill:#008000"
           id="use4852"
           height="782.7583" />
      </g>
    </g>
  </g>
  <path
     inkscape:connector-curvature="0"
     id="path2007"
     d="m 210.27694,614.69581 h 63.22558"
     style="fill:none;stroke:#000000;stroke-width:5;stroke-linecap:butt;stroke-linejoin:miter;stroke-opacity:1;stroke-miterlimit:4;stroke-dasharray:none" />
  <g
     style="font-style:normal;font-variant:normal;font-weight:normal;font-stretch:normal;letter-spacing:normal;word-spacing:normal;text-anchor:start;fill:#008000;fill-opacity:1;fill-rule:evenodd;stroke:#000000;stroke-linecap:butt;stroke-linejoin:miter;stroke-miterlimit:10.43299961;stroke-dasharray:none;stroke-dashoffset:0;stroke-opacity:1"
     ns6:jacobian_sqrt="4.5"
     inkscapeversion="0.92.3"
     ns6:alignment="middle center"
     ns6:scale="0.750000000002"
     ns6:preamble="/home/mjki2mb2/.config/inkscape/extensions/textext/default_packages.tex"
     ns6:text="$y_{SO_2,2}$"
     ns6:pdfconverter="pstoedit"
     ns6:texconverter="pdflatex"
     ns6:version="0.11.0"
     word-spacing="normal"
     letter-spacing="normal"
     font-size-adjust="none"
     font-stretch="normal"
     font-weight="normal"
     font-variant="normal"
     font-style="normal"
     stroke-miterlimit="10.433"
     xml:space="preserve"
     transform="matrix(4.5,0,0,-4.5,-665.09202,3376.8342)"
     id="content">
<path
   id="path6683"
   style="fill:#008000;stroke-width:0"
   d="m 153.54,661.02 v 0 0.01 h 0.01 v 0.01 0.01 0.01 l 0.01,0.01 v 0.01 0.01 l 0.01,0.01 v 0.01 0.01 0 0.01 l 0.01,0.01 v 0 0.01 0.01 0 0.01 0.01 0.01 l 0.01,0.01 v 0.01 0.01 0 0.01 0.01 0 0.01 c 0,0.17 -0.14,0.27 -0.3,0.27 -0.09,0 -0.25,-0.07 -0.34,-0.21 -0.02,-0.06 -0.11,-0.36 -0.15,-0.54 -0.07,-0.25 -0.14,-0.52 -0.2,-0.8 l -0.44,-1.78 c -0.04,-0.16 -0.46,-0.85 -1.12,-0.85 -0.52,0 -0.63,0.44 -0.63,0.8 0,0.47 0.18,1.08 0.52,1.95 0.16,0.41 0.19,0.52 0.19,0.72 0,0.44 -0.32,0.81 -0.82,0.81 -0.93,0 -1.31,-1.43 -1.31,-1.53 0,-0.09 0.11,-0.09 0.13,-0.09 0.09,0 0.11,0.02 0.15,0.17 0.27,0.94 0.68,1.24 1,1.24 0.1,0 0.25,0 0.25,-0.32 0,-0.25 -0.09,-0.51 -0.15,-0.7 -0.41,-1.05 -0.58,-1.61 -0.58,-2.08 0,-0.89 0.62,-1.19 1.2,-1.19 0.39,0 0.74,0.18 1,0.46 -0.12,-0.52 -0.23,-1.02 -0.64,-1.53 -0.25,-0.35 -0.64,-0.63 -1.09,-0.63 -0.14,0 -0.58,0.03 -0.75,0.41 0.15,0 0.28,0 0.42,0.12 0.11,0.1 0.2,0.22 0.2,0.41 0,0.31 -0.26,0.34 -0.37,0.34 -0.22,0 -0.55,-0.15 -0.55,-0.64 0,-0.5 0.44,-0.86 1.05,-0.86 1.03,0 2.04,0.91 2.33,2.02 z"
   inkscape:connector-curvature="0" />
<path
   id="path6685"
   style="fill:#008000;stroke-width:0"
   d="m 158.58,660.59 v 0 0 0.01 0 0.01 0 0.01 0 0 0.01 0 l -0.01,0.01 v 0 0 0.01 0 h -0.01 v 0.01 0 0 l -0.01,0.01 v 0 0 h -0.01 v 0 l -0.01,0.01 v 0 0 h -0.01 v 0 h -0.01 v 0 0 h -0.01 c -0.04,0 -0.06,0 -0.14,-0.09 l -0.34,-0.41 c -0.28,0.37 -0.72,0.5 -1.14,0.5 -1,0 -1.88,-0.8 -1.88,-1.61 0,-0.09 0.02,-0.37 0.24,-0.64 0.23,-0.28 0.5,-0.34 0.97,-0.45 0.14,-0.05 0.5,-0.13 0.61,-0.14 0.22,-0.07 0.64,-0.22 0.64,-0.75 0,-0.57 -0.6,-1.24 -1.39,-1.24 -0.63,0 -1.36,0.22 -1.36,1 0,0.08 0.01,0.22 0.03,0.36 0.01,0.02 0.01,0.03 0.01,0.03 0,0.1 -0.09,0.1 -0.1,0.1 -0.11,0 -0.11,-0.02 -0.15,-0.14 l -0.35,-1.41 c 0,-0.03 -0.02,-0.06 -0.02,-0.11 0,-0.03 0.03,-0.08 0.09,-0.08 0.05,0 0.05,0 0.14,0.1 0.08,0.09 0.27,0.31 0.35,0.39 0.36,-0.41 0.92,-0.49 1.34,-0.49 1.06,0 1.91,0.91 1.91,1.75 0,0.3 -0.13,0.58 -0.28,0.75 -0.24,0.25 -0.35,0.28 -1.25,0.49 -0.16,0.03 -0.38,0.09 -0.44,0.11 -0.19,0.06 -0.49,0.25 -0.49,0.64 0,0.56 0.63,1.12 1.36,1.12 0.77,0 1.13,-0.44 1.13,-1.09 0,-0.1 -0.03,-0.25 -0.03,-0.33 0,-0.09 0.09,-0.09 0.12,-0.09 0.11,0 0.11,0.03 0.14,0.15 z"
   inkscape:connector-curvature="0" />
<path
   id="path6687"
   style="fill:#008000;stroke-width:0"
   d="m 164.7,658.73 v 0.1 l -0.01,0.1 -0.01,0.1 -0.02,0.1 -0.02,0.1 -0.02,0.09 -0.03,0.09 -0.03,0.09 -0.04,0.09 -0.04,0.08 -0.05,0.08 -0.05,0.08 -0.05,0.08 -0.06,0.07 -0.06,0.07 -0.06,0.07 -0.07,0.06 -0.07,0.06 -0.08,0.06 -0.08,0.05 -0.08,0.05 -0.08,0.05 -0.09,0.04 -0.09,0.04 -0.1,0.03 -0.1,0.03 -0.1,0.03 -0.1,0.02 -0.11,0.02 -0.11,0.01 -0.11,0.01 h -0.11 l -0.07,-0.22 c 0.74,0 1.41,-0.47 1.41,-1.48 0,-0.52 -0.22,-1.55 -0.87,-2.3 -0.49,-0.56 -1.13,-0.84 -1.68,-0.84 v 0 c -0.75,0 -1.39,0.5 -1.39,1.54 0,0.36 0.11,1.36 0.75,2.16 0.47,0.58 1.16,0.92 1.78,0.92 l 0.07,0.22 c -1.69,0 -3.32,-1.56 -3.32,-3.16 0,-1.12 0.85,-1.92 2.05,-1.92 1.67,0 3.3,1.53 3.3,3.13 z"
   inkscape:connector-curvature="0" />
<path
   id="path6689"
   style="fill:#008000;stroke-width:0"
   d="m 167.9,655.68 h -0.2 c -0.02,-0.09 -0.08,-0.39 -0.16,-0.43 -0.03,-0.03 -0.47,-0.03 -0.53,-0.03 h -1 c 0.34,0.23 0.72,0.51 1.01,0.7 0.46,0.31 0.88,0.59 0.88,1.11 0,0.62 -0.61,0.97 -1.33,0.97 -0.69,0 -1.19,-0.38 -1.19,-0.86 0,-0.25 0.24,-0.3 0.3,-0.3 0.14,0 0.3,0.09 0.3,0.3 0,0.17 -0.13,0.26 -0.28,0.28 0.14,0.22 0.42,0.37 0.76,0.37 0.49,0 0.91,-0.28 0.91,-0.76 0,-0.41 -0.3,-0.72 -0.69,-1.05 l -1.23,-1.01 c -0.05,-0.04 -0.05,-0.04 -0.07,-0.08 v -0.14 h 2.35 z"
   inkscape:connector-curvature="0" />
<path
   id="path6691"
   style="fill:#008000;stroke-width:0"
   d="m 170.3,655.85 v -0.07 -0.08 l -0.01,-0.07 -0.01,-0.08 v -0.04 l -0.01,-0.04 -0.01,-0.04 -0.01,-0.04 -0.01,-0.04 -0.01,-0.04 -0.01,-0.04 -0.02,-0.04 -0.01,-0.04 -0.02,-0.04 -0.02,-0.04 -0.02,-0.04 -0.02,-0.04 -0.02,-0.04 -0.03,-0.04 -0.02,-0.04 -0.03,-0.05 -0.03,-0.04 -0.03,-0.04 -0.04,-0.04 -0.03,-0.04 -0.04,-0.05 -0.04,-0.04 -0.05,-0.04 c -0.03,-0.03 -0.04,-0.05 -0.04,-0.09 0,-0.05 0.04,-0.1 0.09,-0.1 0.1,0 0.7,0.57 0.7,1.41 0,0.44 -0.17,0.76 -0.5,0.76 -0.23,0 -0.4,-0.18 -0.4,-0.4 0,-0.22 0.17,-0.41 0.4,-0.41 0.18,0 0.29,0.11 0.3,0.11 z"
   inkscape:connector-curvature="0" />
<path
   id="path6693"
   style="fill:#008000;stroke-width:0"
   d="m 174.73,657.02 h -0.23 c -0.02,-0.15 -0.1,-0.57 -0.19,-0.64 -0.05,-0.04 -0.6,-0.04 -0.69,-0.04 h -1.3 c 0.74,0.65 0.99,0.86 1.41,1.18 0.52,0.41 1,0.85 1,1.52 0,0.84 -0.73,1.37 -1.64,1.37 -0.88,0 -1.47,-0.61 -1.47,-1.26 0,-0.36 0.31,-0.39 0.38,-0.39 0.17,0 0.37,0.12 0.37,0.37 0,0.13 -0.05,0.38 -0.42,0.38 0.22,0.5 0.7,0.65 1.03,0.65 0.7,0 1.08,-0.56 1.08,-1.12 0,-0.61 -0.44,-1.09 -0.67,-1.34 l -1.69,-1.68 c -0.08,-0.07 -0.08,-0.07 -0.08,-0.28 h 2.91 z"
   inkscape:connector-curvature="0" />
</g></svg>
